# xmcd
#
# Track frame offsets:
#	150
#	17335
#	33358
#	53029
#	67357
#	87286
#	107568
#	121430
#	132770
#	148401
#
# Disc length: 2188 seconds
#
# Revision: 1
# Processed by: cddbd v1.5.1PL0 Copyright (c) Steve Scherf et al.
# Submitted via: audiograbber 1.82.02
#
DISCID=8b088a0a
DTITLE=Reba McEntire - What Am I Gonna Do About You
DYEAR=1986
DGENRE=Country
TTITLE0=Reba McEntire - Why Not Tonight
TTITLE1=Reba McEntire - What Am I Gonna Do About You
TTITLE2=Reba McEntire - Lookin' For A New Love Story
TTITLE3=Reba McEntire - Take Me Back
TTITLE4=Reba McEntire - My Mind Is On
TTITLE5=Reba McEntire - Let the Music Lift You Up
TTITLE6=Reba McEntire - I Heard Her Cryin'
TTITLE7=Reba McEntire - No Such Thing
TTITLE8=Reba McEntire - One Promise Too Late
TTITLE9=Reba McEntire - Till It Snows In Mexico
EXTD=
EXTT0=
EXTT1=
EXTT2=
EXTT3=
EXTT4=
EXTT5=
EXTT6=
EXTT7=
EXTT8=
EXTT9=
PLAYORDER=
